<?xml version="1.0" standalone="no"?>
<!DOCTYPE svg PUBLIC "-//W3C//DTD SVG 20010904//EN"
 "http://www.w3.org/TR/2001/REC-SVG-20010904/DTD/svg10.dtd">
<svg version="1.0" xmlns="http://www.w3.org/2000/svg"
 width="350" height="287"  fill="none" viewBox="0 0 1059.000000 1280.000000"
 preserveAspectRatio="xMidYMid meet" >
  <rect width="100%" height="100%" fill="#f7f7f7" fill-opacity="0.5" />

    <!-- Your SVG Content Goes Here -->
    <!-- Example content: a red circle -->
    <circle cx="50%" cy="50%" r="50"/>

<g transform="translate(0.000000,1280.000000) scale(0.100000,-0.100000)"
fill="#000000" stroke="none">
<path d="M4910 9865 l0 -255 170 0 c163 0 170 1 170 20 0 19 -7 20 -143 20
l-144 0 -6 158 c-4 86 -7 192 -7 235 0 70 -2 77 -20 77 -19 0 -20 -7 -20 -255z"/>
<path d="M4573 10074 c-5 -13 39 -405 53 -471 3 -15 12 -23 26 -23 20 0 21 3
15 63 -13 125 -55 426 -62 436 -9 16 -25 13 -32 -5z"/>
<path d="M5506 10063 c-3 -16 -13 -77 -22 -138 -8 -60 -22 -153 -30 -205 -21
-148 -27 -136 69 -149 45 -6 115 -16 156 -22 77 -11 105 -7 99 13 -3 8 -59 21
-142 34 -76 12 -140 25 -143 28 -3 3 2 56 11 118 52 346 52 348 22 348 -8 0
-17 -12 -20 -27z"/>
<path d="M4226 10022 c-2 -4 7 -54 22 -110 14 -55 24 -104 20 -107 -8 -9 -247
-75 -269 -75 -13 0 -21 13 -29 43 -27 103 -46 161 -55 164 -36 11 -33 -17 31
-252 36 -132 67 -241 68 -243 8 -8 36 12 36 26 0 9 -12 58 -27 110 -15 54 -22
97 -17 102 12 11 263 82 276 78 6 -2 17 -28 25 -58 35 -138 44 -160 64 -160
12 0 19 7 19 18 -1 9 -29 118 -63 242 -47 166 -67 226 -79 228 -9 2 -19 -1
-22 -6z"/>
<path d="M6197 9870 c-27 -32 -105 -123 -173 -202 -68 -79 -122 -147 -121
-153 9 -26 39 -11 87 45 34 40 59 60 73 59 12 0 62 -15 112 -32 100 -36 101
-37 104 -144 1 -42 5 -54 22 -63 11 -7 22 -10 24 -8 4 3 -11 221 -31 453 -11
125 -26 132 -97 45z m68 -163 c4 -59 4 -107 0 -107 -23 0 -185 55 -185 63 0
10 70 97 129 160 35 37 36 37 42 14 4 -13 10 -72 14 -130z"/>
<path d="M3487 9766 c-139 -50 -189 -157 -116 -249 26 -34 68 -41 149 -27 161
28 198 23 220 -31 17 -40 6 -74 -35 -105 -50 -38 -100 -53 -178 -54 -60 0 -68
-2 -65 -17 3 -15 16 -19 77 -21 67 -3 82 0 138 28 108 53 143 131 96 212 -30
52 -74 62 -189 43 -135 -22 -159 -20 -183 11 -60 76 29 176 158 178 36 1 56 6
59 15 10 31 -63 41 -131 17z"/>
<path d="M7005 9543 c-91 -129 -245 -377 -242 -387 9 -23 220 -148 257 -153
44 -6 89 14 120 54 17 22 21 38 18 78 -3 27 -8 58 -12 68 -7 14 -3 17 23 17
21 0 43 10 67 33 31 28 37 41 42 85 3 37 0 59 -11 75 -12 19 -139 109 -224
160 -7 4 -22 -8 -38 -30z m140 -83 c85 -57 102 -84 85 -135 -14 -42 -37 -62
-80 -70 -31 -5 -45 0 -117 47 -46 29 -83 57 -83 62 0 21 96 156 107 151 7 -2
47 -27 88 -55z m-122 -196 c60 -39 88 -63 96 -84 14 -41 -3 -94 -37 -116 -46
-30 -82 -23 -171 35 -45 30 -84 58 -87 63 -8 12 85 158 100 158 7 0 52 -25 99
-56z"/>
<path d="M2395 9011 c-60 -60 -111 -115 -113 -121 -5 -14 327 -350 345 -350 7
0 63 49 124 109 77 76 110 115 106 125 -4 9 -10 16 -14 16 -5 0 -51 -43 -103
-95 -52 -52 -99 -95 -105 -95 -12 0 -135 122 -135 134 0 4 37 43 82 86 57 55
79 82 75 94 -4 9 -10 16 -14 16 -5 0 -44 -36 -88 -80 -44 -44 -84 -80 -89 -80
-14 0 -126 112 -126 125 0 6 42 53 94 104 56 56 92 99 89 107 -3 8 -8 14 -12
14 -3 0 -55 -49 -116 -109z"/>
<path d="M7600 9048 c-36 -16 -140 -64 -232 -105 -93 -42 -168 -79 -168 -83 0
-4 6 -13 14 -19 10 -9 31 -3 91 24 l78 36 76 -73 c82 -79 95 -94 87 -106 -2
-4 -16 -38 -30 -75 -23 -61 -24 -68 -9 -83 15 -14 17 -14 25 1 9 15 72 183
150 396 46 127 33 141 -82 87z m60 -28 c0 -13 -81 -223 -90 -233 -4 -5 -40 22
-79 59 -44 41 -68 71 -63 76 10 10 211 105 225 107 4 1 7 -3 7 -9z"/>
<path d="M6524 8766 c-4 -9 -4 -20 0 -23 3 -4 12 -1 18 5 9 9 9 15 0 24 -9 9
-13 7 -18 -6z"/>
<path d="M7908 8637 c-123 -35 -212 -169 -194 -291 13 -87 69 -146 170 -180
18 -6 18 -8 -4 -31 -18 -19 -21 -28 -13 -36 9 -9 29 1 78 37 37 27 80 58 96
69 16 11 29 24 29 29 0 14 -79 116 -90 116 -21 0 -18 -20 10 -56 16 -21 30
-42 30 -46 0 -4 -15 -19 -34 -33 -31 -24 -36 -25 -85 -14 -97 21 -162 114
-146 209 18 104 121 190 228 190 84 0 132 -30 172 -109 13 -26 16 -49 12 -88
-6 -55 4 -73 28 -53 20 16 20 107 0 153 -46 111 -166 167 -287 134z"/>
<path d="M2047 8633 c-17 -16 -1 -34 78 -89 47 -33 85 -63 85 -68 0 -7 -141
-218 -161 -240 -5 -6 -46 16 -100 53 -80 56 -93 62 -106 49 -18 -18 -13 -22
230 -193 151 -105 170 -116 184 -102 14 13 5 22 -81 86 -53 39 -96 73 -96 76
0 3 21 35 48 72 26 38 60 87 76 110 47 70 44 70 145 -2 51 -36 96 -65 100 -65
13 0 23 32 14 41 -19 17 -397 279 -403 279 -4 0 -10 -3 -13 -7z"/>
<path d="M5637 8624 c-8 -8 1 -24 14 -24 5 0 9 7 9 15 0 15 -12 20 -23 9z"/>
<path d="M4515 8481 c-7 -12 12 -24 25 -16 11 7 4 25 -10 25 -5 0 -11 -4 -15
-9z"/>
<path d="M5070 8293 c-14 -10 -92 -76 -175 -148 -82 -72 -289 -252 -460 -400
-170 -147 -312 -271 -315 -275 -3 -3 -205 -181 -450 -396 -244 -214 -486 -430
-537 -479 l-93 -91 0 -124 c0 -250 -12 -1325 -16 -1329 -1 -2 -10 14 -19 35
-47 113 -150 171 -191 109 -50 -77 42 -389 174 -590 l40 -61 -40 -79 c-38 -76
-80 -143 -212 -335 -86 -125 -90 -129 -103 -130 -16 0 -18 -10 21 100 44 124
53 203 29 250 -37 71 -99 72 -146 1 -35 -53 -47 -97 -54 -188 l-6 -83 -51 0
c-51 0 -127 -27 -141 -50 -4 -7 -18 -9 -38 -4 -44 10 -75 7 -100 -11 -12 -8
-25 -15 -29 -15 -10 0 -11 95 -2 139 7 33 42 53 218 127 83 35 114 69 96 105
-7 13 -18 27 -24 31 -39 26 -142 -19 -222 -98 -29 -29 -55 -50 -57 -46 -9 15
25 238 39 260 9 13 60 44 122 73 118 55 152 81 152 116 0 28 -33 63 -58 63
-30 0 -105 -56 -148 -109 -44 -56 -54 -61 -54 -28 0 36 61 300 75 323 8 12 38
37 68 57 82 54 155 114 173 141 22 34 4 66 -37 66 -23 0 -44 -14 -91 -60 -34
-33 -64 -58 -66 -55 -13 13 82 234 120 280 41 50 108 153 128 198 38 82 15
147 -50 147 -52 0 -82 -75 -95 -237 -6 -70 -16 -108 -50 -188 -23 -55 -50
-122 -60 -150 -10 -27 -21 -54 -25 -58 -4 -5 -15 34 -24 86 -21 115 -44 157
-86 157 -54 0 -63 -62 -23 -170 19 -49 66 -135 90 -162 14 -15 12 -30 -15
-140 -17 -68 -34 -140 -37 -160 -4 -21 -11 -38 -15 -38 -4 0 -18 41 -30 90
-28 114 -53 154 -100 158 -43 4 -60 -17 -60 -73 0 -52 32 -114 112 -220 l61
-79 -12 -96 c-18 -144 -22 -170 -30 -170 -3 0 -20 30 -36 68 -33 76 -113 164
-159 176 -39 10 -76 -16 -76 -52 0 -58 45 -124 132 -192 137 -108 138 -109
138 -217 0 -70 -4 -95 -16 -107 -14 -14 -13 -20 14 -58 16 -24 37 -55 46 -70
12 -20 25 -28 45 -28 16 0 31 4 33 8 2 5 15 12 31 16 37 9 41 -6 23 -90 -7
-38 -12 -71 -10 -73 9 -10 16 12 28 86 l12 78 59 28 c33 16 70 38 82 50 13 11
26 17 30 13 4 -4 8 -44 8 -89 0 -78 -3 -88 -53 -194 -53 -115 -59 -133 -43
-133 5 0 15 17 21 38 13 38 122 255 143 283 11 14 21 15 67 8 77 -13 144 -3
217 32 95 46 141 123 97 160 -31 26 -87 14 -193 -41 -55 -29 -104 -51 -107
-47 -7 6 23 53 114 180 53 74 57 77 96 77 67 0 225 37 285 66 109 54 231 207
231 291 0 37 -36 83 -65 83 -40 0 -92 -38 -229 -166 -81 -77 -152 -140 -157
-142 -17 -6 -9 16 26 77 52 93 92 180 129 283 l34 93 64 -3 c145 -8 266 38
368 137 69 68 105 137 96 184 -19 95 -81 76 -271 -83 -107 -88 -216 -170 -228
-170 -5 0 -6 12 -2 28 7 31 81 246 95 277 29 66 141 339 157 385 62 171 51
355 -27 425 -24 22 -80 22 -113 1 -66 -44 -96 -211 -77 -443 19 -245 24 -400
12 -430 -6 -16 -34 -102 -62 -193 -29 -91 -56 -169 -60 -173 -13 -14 -20 1745
-6 1773 6 13 58 62 116 108 103 82 148 121 299 253 42 37 195 169 341 295 146
126 394 342 551 479 157 138 364 318 459 400 95 83 178 155 184 160 93 85 109
85 206 -2 41 -36 104 -92 140 -123 36 -31 162 -142 280 -246 222 -196 657
-578 955 -839 94 -82 209 -183 256 -226 47 -42 133 -114 190 -159 57 -46 107
-88 111 -94 4 -6 8 -521 8 -1143 l0 -1132 -27 -15 c-66 -34 -104 -107 -148
-283 -15 -62 -31 -111 -35 -108 -4 2 -11 28 -14 57 -11 83 -45 218 -68 275
-18 44 -19 57 -10 78 7 14 12 41 12 60 0 19 4 35 9 35 23 0 76 59 102 113 71
151 62 387 -24 634 -22 61 -23 72 -11 95 17 32 2 83 -28 99 -27 15 -77 -7 -84
-37 -9 -36 3 -59 44 -82 42 -23 64 -74 103 -237 26 -108 31 -301 11 -382 l-14
-53 -46 0 -47 0 -1 163 c-1 157 -25 342 -52 394 -5 10 -7 33 -5 51 6 38 -18
72 -52 72 -30 0 -45 -19 -45 -56 0 -34 28 -64 61 -64 21 0 45 -76 59 -190 14
-107 9 -362 -6 -367 -7 -2 -13 21 -17 63 -4 44 -30 135 -72 258 -56 164 -64
198 -59 236 5 37 3 48 -14 63 -23 21 -60 19 -75 -4 -15 -25 0 -67 31 -83 20
-10 33 -30 49 -78 12 -34 42 -124 68 -198 36 -105 47 -150 48 -205 2 -64 0
-70 -18 -70 -15 0 -23 11 -32 40 -6 22 -21 74 -34 115 -26 90 -73 206 -133
329 -40 82 -43 94 -33 121 14 37 2 61 -36 74 -33 12 -57 -6 -57 -45 0 -20 10
-35 35 -54 59 -45 171 -298 226 -508 24 -93 21 -106 -23 -107 -34 0 -163 233
-209 379 l-23 74 22 15 c26 17 29 63 6 86 -25 25 -72 20 -86 -9 -9 -20 -7 -29
8 -51 28 -40 29 -41 60 -139 31 -97 90 -221 148 -308 41 -61 43 -72 19 -82
-26 -10 -140 115 -185 202 -20 37 -54 121 -76 185 -33 98 -37 119 -26 129 32
26 4 79 -41 79 -14 0 -29 -9 -35 -20 -8 -15 -5 -25 19 -52 18 -20 40 -70 59
-129 57 -177 111 -277 197 -361 70 -68 42 -94 -44 -38 -103 66 -209 202 -266
341 -35 86 -36 104 -4 114 21 7 34 44 25 73 -4 11 -20 25 -37 32 -27 11 -34
10 -57 -7 -37 -27 -41 -71 -10 -98 13 -11 39 -58 57 -105 60 -150 162 -287
270 -362 54 -38 163 -78 213 -78 33 0 41 -5 62 -39 14 -22 34 -42 45 -46 25
-8 64 -115 90 -247 22 -113 37 -248 28 -248 -3 0 -34 52 -69 115 -86 157 -155
225 -231 225 -39 0 -47 -17 -31 -63 27 -77 77 -138 210 -258 l134 -120 0 -152
c0 -165 -9 -317 -19 -317 -4 0 -19 39 -35 87 -64 200 -167 356 -235 356 -67 0
-63 -40 15 -193 30 -58 83 -143 117 -190 34 -47 78 -110 96 -140 l34 -55 -13
-90 c-7 -49 -18 -112 -25 -140 -14 -52 -12 -66 6 -48 13 13 54 251 64 368 l7
81 71 39 c132 71 224 148 288 241 28 42 69 148 69 182 0 28 -38 72 -61 72 -62
0 -148 -92 -241 -256 -37 -65 -78 -132 -92 -149 l-25 -30 -1 195 c0 107 -3
211 -6 230 -5 32 -1 40 61 105 163 171 242 319 205 383 -7 11 -13 423 -18
1170 l-7 1153 -100 97 c-55 54 -226 205 -379 337 -465 399 -1150 989 -1374
1183 -225 194 -239 202 -292 165z m-1755 -2375 c-4 -16 0 -27 15 -36 19 -11
21 -10 27 18 8 41 22 34 53 -26 21 -41 25 -62 24 -129 0 -80 -11 -125 -57
-245 -42 -112 -61 -150 -74 -150 -6 0 -17 -16 -24 -35 -19 -50 -28 -43 -16 12
9 35 8 48 -1 51 -7 2 -13 25 -14 55 l-1 52 -6 -50 -7 -50 -9 50 c-5 28 -9 124
-10 215 0 155 1 168 24 210 29 55 50 80 68 80 9 0 12 -7 8 -22z m-341 -798
c34 -59 74 -340 47 -340 -6 0 -11 -18 -11 -42 l-1 -43 -24 45 c-31 58 -31 50
0 -25 13 -33 25 -69 25 -80 0 -18 -2 -18 -20 5 -24 31 -83 150 -109 221 -44
119 -67 288 -41 304 6 3 10 0 10 -7 0 -10 3 -9 10 2 7 12 12 11 32 -5 13 -12
17 -13 10 -4 -6 9 -9 19 -6 22 11 10 60 -24 78 -53z m614 -27 c-18 -15 -35
-30 -38 -33 -3 -4 -42 -34 -87 -69 -46 -34 -83 -64 -83 -67 0 -7 42 23 142
102 83 65 105 77 94 48 -5 -14 -4 -15 9 -4 13 11 15 8 15 -17 0 -92 -173 -230
-322 -257 -41 -8 -48 -1 -20 21 13 11 8 10 -22 -2 -72 -28 -93 -13 -25 19 22
10 38 20 35 23 -2 2 -16 -3 -30 -12 -14 -9 -31 -15 -37 -13 -7 2 19 26 56 53
37 26 107 82 154 123 102 88 138 112 169 112 22 0 22 -2 -10 -27z m-233 -539
c50 -76 -77 -242 -224 -292 -51 -18 -48 -8 9 28 28 18 49 34 47 37 -3 2 -24
-9 -48 -25 -24 -16 -68 -38 -97 -48 -46 -17 -54 -17 -62 -4 -7 12 -12 12 -22
2 -14 -14 -48 -16 -48 -3 0 5 21 26 48 47 26 21 99 89 163 151 64 62 124 113
134 113 15 0 16 -2 4 -17 -8 -10 2 -5 21 10 43 33 53 34 75 1z m-650 -214 c8
-16 15 -52 15 -79 0 -62 -35 -162 -54 -155 -9 4 -16 -7 -21 -33 -4 -21 -10
-42 -15 -48 -4 -5 -10 -19 -13 -30 -3 -11 -4 3 -2 30 l4 50 -12 -55 c-9 -38
-18 -56 -30 -58 -11 -2 -17 -13 -17 -30 0 -19 -3 -23 -11 -15 -8 8 -10 59 -6
170 5 155 17 222 49 261 10 12 13 10 20 -8 9 -24 28 -18 28 8 0 12 9 18 25 20
18 1 29 -6 40 -28z m244 -339 c23 -15 6 -37 -50 -65 -29 -14 -46 -26 -38 -26
7 0 29 9 48 21 42 26 62 20 30 -10 -38 -36 -112 -69 -170 -77 -50 -7 -53 -6
-40 9 7 10 23 17 35 18 20 0 19 1 -3 10 -16 6 -35 6 -54 -1 -68 -23 -53 4 33
59 94 60 174 84 209 62z m-689 -15 c0 -8 -12 -29 -27 -48 -15 -18 -28 -35 -30
-37 -11 -15 -12 14 -1 53 10 38 16 46 35 46 13 0 23 -6 23 -14z m-72 -49 c-16
-46 -26 -54 -34 -23 -4 19 -1 33 11 46 25 27 36 16 23 -23z"/>
<path d="M3272 5765 c0 -16 2 -22 5 -12 2 9 2 23 0 30 -3 6 -5 -1 -5 -18z"/>
<path d="M3323 5725 c0 -22 2 -30 4 -17 2 12 2 30 0 40 -3 9 -5 -1 -4 -23z"/>
<path d="M3256 5637 c-5 -43 -6 -80 -3 -83 9 -10 19 58 15 111 -3 47 -4 46
-12 -28z"/>
<path d="M3312 5630 c0 -19 2 -27 5 -17 2 9 2 25 0 35 -3 9 -5 1 -5 -18z"/>
<path d="M3282 5470 c0 -14 2 -19 5 -12 2 6 2 18 0 25 -3 6 -5 1 -5 -13z"/>
<path d="M3271 5404 c0 -11 3 -14 6 -6 3 7 2 16 -1 19 -3 4 -6 -2 -5 -13z"/>
<path d="M3311 5404 c0 -11 3 -14 6 -6 3 7 2 16 -1 19 -3 4 -6 -2 -5 -13z"/>
<path d="M2860 5133 c0 -4 5 -15 10 -23 8 -13 10 -13 10 2 0 9 -4 20 -10 23
-5 3 -10 3 -10 -2z"/>
<path d="M2881 5074 c0 -11 3 -14 6 -6 3 7 2 16 -1 19 -3 4 -6 -2 -5 -13z"/>
<path d="M2946 5067 c3 -10 9 -15 12 -12 3 3 0 11 -7 18 -10 9 -11 8 -5 -6z"/>
<path d="M2892 5020 c0 -14 2 -19 5 -12 2 6 2 18 0 25 -3 6 -5 1 -5 -13z"/>
<path d="M2971 4974 c0 -11 3 -14 6 -6 3 7 2 16 -1 19 -3 4 -6 -2 -5 -13z"/>
<path d="M2912 4940 c0 -14 2 -19 5 -12 2 6 2 18 0 25 -3 6 -5 1 -5 -13z"/>
<path d="M2986 4915 c8 -37 14 -45 14 -19 0 10 -5 26 -10 34 -8 11 -9 7 -4
-15z"/>
<path d="M2922 4890 c0 -14 2 -19 5 -12 2 6 2 18 0 25 -3 6 -5 1 -5 -13z"/>
<path d="M2930 4855 c0 -5 5 -17 10 -25 5 -8 10 -10 10 -5 0 6 -5 17 -10 25
-5 8 -10 11 -10 5z"/>
<path d="M3002 4820 c0 -19 2 -27 5 -17 2 9 2 25 0 35 -3 9 -5 1 -5 -18z"/>
<path d="M3560 5004 c-25 -25 -66 -59 -92 -76 -57 -37 -63 -48 -10 -18 38 22
88 65 131 113 39 44 19 31 -29 -19z"/>
<path d="M3380 4870 c-9 -6 -10 -10 -3 -10 6 0 15 5 18 10 8 12 4 12 -15 0z"/>
<path d="M3225 4510 c-3 -5 -1 -10 4 -10 6 0 11 5 11 10 0 6 -2 10 -4 10 -3 0
-8 -4 -11 -10z"/>
<path d="M3199 4473 c-13 -16 -12 -17 4 -4 16 13 21 21 13 21 -2 0 -10 -8 -17
-17z"/>
<path d="M3165 4437 c-25 -29 -26 -40 -2 -18 15 14 27 26 27 28 0 7 -16 1 -25
-10z"/>
<path d="M3109 4373 c-13 -16 -12 -17 4 -4 16 13 21 21 13 21 -2 0 -10 -8 -17
-17z"/>
<path d="M2601 4254 c0 -11 3 -14 6 -6 3 7 2 16 -1 19 -3 4 -6 -2 -5 -13z"/>
<path d="M2587 4166 c-4 -10 -7 -34 -6 -54 l1 -37 9 45 c10 48 7 75 -4 46z"/>
<path d="M2573 4010 c0 -25 2 -35 4 -22 2 12 2 32 0 45 -2 12 -4 2 -4 -23z"/>
<path d="M2847 3952 c-48 -25 -86 -47 -84 -48 5 -6 165 75 172 86 3 5 5 9 3 9
-2 -1 -42 -22 -91 -47z"/>
<path d="M6345 8271 c-7 -12 12 -24 25 -16 11 7 4 25 -10 25 -5 0 -11 -4 -15
-9z"/>
<path d="M8211 8020 c-210 -104 -246 -129 -199 -138 9 -2 57 18 108 43 50 25
95 43 100 40 9 -6 130 -251 130 -264 0 -4 -45 -29 -100 -56 -94 -46 -118 -69
-86 -81 20 -8 446 202 446 220 0 29 -20 26 -97 -12 -130 -66 -114 -73 -187 80
-35 73 -61 136 -57 140 3 4 48 28 99 53 71 34 92 49 88 61 -3 9 -6 18 -6 20 0
11 -32 -4 -239 -106z"/>
<path d="M1676 8042 c-48 -96 -146 -311 -146 -320 0 -5 7 -13 15 -16 12 -4 25
14 52 74 20 44 40 80 44 80 5 0 48 -19 96 -41 352 -166 320 -154 333 -128 10
17 7 21 -24 34 -19 8 -106 49 -192 90 -86 41 -160 75 -164 75 -4 0 -13 6 -19
13 -8 10 -2 31 24 86 40 82 41 87 20 95 -10 4 -22 -9 -39 -42z"/>
<path d="M3645 8081 c-3 -5 -1 -12 5 -16 12 -7 30 2 30 16 0 12 -27 12 -35 0z"/>
<path d="M6870 7914 c0 -9 5 -14 12 -12 18 6 21 28 4 28 -9 0 -16 -7 -16 -16z"/>
<path d="M6324 7726 c-9 -23 -1 -48 19 -60 26 -16 62 27 47 55 -13 22 -58 26
-66 5z"/>
<path d="M3874 7716 c-15 -40 21 -80 54 -60 37 24 21 74 -25 74 -13 0 -26 -6
-29 -14z"/>
<path d="M3010 7685 c0 -8 7 -15 15 -15 8 0 15 7 15 15 0 8 -7 15 -15 15 -8 0
-15 -7 -15 -15z"/>
<path d="M5035 7573 c-101 -14 -194 -85 -238 -181 -33 -71 -31 -199 3 -266 31
-61 100 -121 176 -154 49 -21 75 -26 154 -26 84 0 102 3 152 27 105 51 169
153 170 268 1 84 -23 154 -76 227 -41 55 -47 59 -117 79 -78 22 -174 34 -224
26z m212 -64 c71 -23 102 -54 141 -137 30 -66 33 -166 7 -230 -25 -60 -104
-128 -173 -148 -156 -46 -350 39 -396 171 -30 90 -16 186 41 268 69 100 217
130 380 76z"/>
<path d="M6813 7444 c-8 -21 13 -42 28 -27 13 13 5 43 -11 43 -6 0 -13 -7 -17
-16z"/>
<path d="M7297 7217 c-3 -8 -1 -20 4 -28 11 -19 34 3 26 25 -8 20 -23 21 -30
3z"/>
<path d="M2566 7163 c-12 -12 -6 -33 9 -33 8 0 15 6 15 14 0 17 -14 28 -24 19z"/>
<path d="M3047 7164 c-16 -16 -6 -34 19 -34 19 0 25 5 22 17 -3 19 -29 29 -41
17z"/>
<path d="M7700 6955 c0 -8 7 -15 15 -15 8 0 15 7 15 15 0 8 -7 15 -15 15 -8 0
-15 -7 -15 -15z"/>
<path d="M8096 6944 c-31 -31 -13 -74 31 -74 37 0 51 60 19 82 -17 12 -33 9
-50 -8z"/>
<path d="M7342 6838 c-19 -19 -14 -56 10 -69 18 -10 24 -8 40 11 22 27 22 34
2 54 -19 19 -36 20 -52 4z"/>
<path d="M2002 6728 c-7 -7 -12 -21 -12 -33 0 -47 54 -62 70 -19 13 32 13 30
-6 48 -19 19 -36 20 -52 4z"/>
<path d="M6470 6590 c-8 -6 -37 -18 -65 -29 -27 -10 -81 -34 -120 -53 l-70
-33 -260 -5 -260 -5 0 -482 c0 -265 4 -485 9 -490 10 -10 299 -5 432 8 l102 9
116 -65 c64 -36 123 -65 130 -65 10 0 13 96 14 463 2 254 4 527 5 606 2 145
-2 161 -33 141z m19 -81 c-2 -57 -18 -79 -57 -79 -15 0 -64 -9 -110 -20 -46
-11 -88 -20 -93 -20 -6 0 -9 15 -7 32 3 37 31 55 163 108 102 41 106 40 104
-21z m-559 -163 l0 -93 -31 -7 c-17 -3 -65 -6 -105 -6 l-74 0 0 100 0 100 105
0 105 0 0 -94z m255 -6 l0 -95 -86 -3 c-47 -1 -98 2 -112 7 -27 10 -27 12 -27
101 l0 91 113 -3 112 -3 0 -95z m295 25 c0 -51 3 -50 -125 -60 -44 -3 -92 -8
-107 -11 -26 -6 -28 -4 -28 29 0 34 2 36 54 51 54 16 143 33 184 35 20 1 22
-4 22 -44z m0 -124 c0 -30 -5 -51 -12 -54 -15 -5 -192 2 -225 9 -19 3 -23 11
-23 38 0 35 0 35 58 41 31 4 62 8 67 10 6 2 38 4 73 4 l62 1 0 -49z m-548
-321 c2 -166 1 -324 -2 -353 l-5 -52 -91 -3 c-117 -4 -120 -1 -114 117 3 47 4
197 2 333 l-3 247 68 4 c37 2 84 4 104 5 l37 2 4 -300z m250 281 c4 -4 11
-150 14 -326 6 -277 5 -322 -8 -332 -13 -11 -218 -32 -218 -22 0 2 -3 151 -7
330 -4 241 -3 331 6 347 11 21 16 22 109 16 53 -4 100 -9 104 -13z m206 -38
l82 -6 0 -33 c0 -39 5 -38 -125 -24 -112 13 -125 17 -125 39 0 34 15 36 168
24z m22 -92 c51 -6 55 -8 58 -35 2 -16 0 -32 -5 -36 -7 -6 -106 10 -209 35
-20 4 -38 38 -27 48 4 5 83 0 183 -12z m-35 -84 c89 -22 90 -23 93 -55 3 -29
1 -32 -25 -32 -15 1 -68 11 -118 23 -89 22 -90 22 -93 55 -3 29 -1 32 25 31
15 0 69 -10 118 -22z m-25 -92 c118 -26 120 -28 120 -79 0 -25 -4 -47 -8 -50
-4 -2 -28 4 -52 16 -25 11 -70 29 -100 40 -68 26 -80 35 -80 63 0 27 9 37 29
31 9 -3 50 -12 91 -21z m-49 -94 c30 -10 80 -30 112 -44 54 -24 57 -28 57 -61
0 -19 -4 -37 -8 -40 -4 -2 -55 14 -112 38 l-105 42 -3 42 c-2 23 -1 42 1 42 2
0 28 -8 58 -19z m51 -132 c108 -43 128 -58 128 -95 0 -38 -17 -37 -93 2 -40
21 -89 47 -109 57 -31 15 -38 25 -38 48 0 16 2 29 5 29 2 0 51 -18 107 -41z
m16 -106 l112 -57 0 -48 c0 -29 -4 -48 -11 -48 -6 0 -37 15 -68 34 -31 18 -80
46 -108 61 -51 27 -53 29 -53 72 0 23 3 43 8 43 4 0 58 -25 120 -57z"/>
<path d="M2355 6501 c-7 -12 12 -24 25 -16 11 7 4 25 -10 25 -5 0 -11 -4 -15
-9z"/>
<path d="M7700 6475 c0 -8 7 -15 15 -15 8 0 15 7 15 15 0 8 -7 15 -15 15 -8 0
-15 -7 -15 -15z"/>
<path d="M3936 6451 c-8 -12 1 -958 8 -970 12 -19 97 -23 302 -12 179 9 211
14 223 28 14 19 14 6 -8 738 l-6 210 -135 6 c-208 10 -378 10 -384 0z m234
-81 c3 -30 3 -73 0 -95 l-5 -40 -100 0 -100 0 -3 84 c-2 46 0 90 2 98 4 11 28
13 103 11 l98 -3 5 -55z m178 53 l83 -6 -3 -96 -3 -96 -95 0 c-134 0 -130 -3
-130 103 0 49 3 92 7 95 8 9 35 9 141 0z m-175 -533 c2 -168 1 -325 -2 -350
l-6 -45 -51 -3 c-28 -2 -73 1 -100 5 l-49 8 -1 348 -2 348 104 -3 103 -3 4
-305z m254 296 c3 -3 19 -633 15 -648 -7 -28 -53 -39 -148 -36 l-89 3 -3 325
c-1 179 0 336 3 349 6 23 6 23 113 16 59 -4 108 -8 109 -9z"/>
<path d="M8292 6256 c1 -10 8 -17 13 -17 15 1 12 24 -3 29 -9 3 -13 -2 -10
-12z"/>
<path d="M7740 6056 c-57 -39 -84 -83 -88 -148 -3 -43 0 -67 15 -95 18 -35 18
-47 9 -168 l-11 -130 -32 67 c-32 67 -124 175 -141 164 -16 -9 7 -116 36 -170
27 -50 60 -88 119 -138 28 -24 32 -34 38 -103 4 -42 5 -79 1 -82 -3 -4 -16 3
-29 14 -35 32 -97 60 -162 72 -71 13 -65 13 -65 1 0 -36 165 -143 252 -164 24
-5 28 -14 47 -97 27 -119 27 -123 -11 -87 -32 30 -141 88 -165 88 -19 0 -16
-12 18 -64 35 -52 93 -96 154 -117 22 -7 45 -18 51 -23 13 -12 68 -186 61
-192 -3 -3 -32 9 -65 26 -62 32 -162 52 -162 33 0 -34 148 -127 218 -137 19
-2 36 -6 38 -9 9 -9 47 -148 41 -153 -3 -4 -21 3 -40 15 -69 42 -207 80 -207
56 0 -19 68 -84 111 -106 21 -10 66 -23 100 -28 33 -4 65 -14 70 -22 13 -20
53 -149 48 -154 -3 -2 -28 3 -57 11 -48 14 -54 19 -73 65 -37 85 -75 62 -109
-66 -5 -22 -10 -60 -10 -85 0 -50 -9 -90 -19 -90 -11 0 -79 182 -116 312 -47
165 -70 219 -108 256 -48 46 -83 56 -107 32 -42 -42 -22 -98 79 -225 40 -49
93 -121 118 -159 45 -66 96 -176 88 -185 -3 -2 -29 19 -59 47 -111 105 -180
107 -161 4 11 -58 83 -121 178 -156 47 -17 84 -37 92 -50 14 -23 39 -155 30
-164 -3 -3 -21 13 -40 35 -36 43 -123 93 -160 93 -53 0 -59 -53 -13 -106 44
-50 102 -85 173 -104 l60 -15 9 -83 c11 -102 29 -110 20 -9 -7 81 -7 82 86
140 63 39 111 180 80 236 -27 52 -84 -3 -141 -137 -15 -37 -31 -68 -36 -69 -7
-3 -44 170 -43 204 0 6 18 39 41 73 23 34 50 82 61 106 20 47 24 49 78 35 19
-5 47 -12 62 -15 28 -6 39 -33 83 -188 25 -90 53 -70 34 24 l-11 53 40 42 c51
54 68 102 50 140 -21 43 -40 34 -75 -36 -20 -40 -34 -59 -37 -50 -15 40 -56
191 -56 206 0 9 17 39 39 67 21 28 46 66 55 83 18 36 33 123 21 123 -19 0 -97
-75 -121 -116 -14 -24 -27 -44 -29 -44 -6 0 -85 249 -85 266 0 8 20 39 45 70
51 62 79 113 90 162 5 26 3 32 -10 32 -23 0 -110 -85 -130 -126 -9 -18 -19
-34 -24 -34 -4 0 -20 45 -36 99 l-28 100 57 62 c62 69 115 164 99 180 -12 12
-113 -78 -138 -125 -11 -20 -24 -35 -30 -33 -11 4 -32 85 -34 129 -1 21 18 47
82 114 86 91 116 134 117 172 0 29 -13 28 -64 -7 -57 -39 -104 -94 -129 -150
l-21 -46 -13 65 c-6 36 -12 81 -13 101 0 33 4 38 43 55 56 25 123 88 137 128
11 34 0 86 -18 86 -17 0 -88 -57 -124 -99 -19 -22 -38 -41 -41 -41 -4 0 -7 41
-7 91 l0 91 39 45 c49 55 69 129 55 200 -5 26 -14 48 -19 50 -6 2 -26 -8 -45
-21z m-264 -1554 c31 -47 65 -112 59 -112 -5 0 -95 127 -101 144 -12 32 12 14
42 -32z m329 -325 c-12 -58 -36 -127 -46 -127 -14 0 -11 50 7 100 9 25 18 51
20 58 8 28 25 -1 19 -31z m-178 -134 c51 -30 70 -50 57 -63 -7 -7 -33 5 -74
33 -100 67 -88 91 17 30z m289 -188 c-11 -43 -77 -148 -87 -138 -13 13 5 57
41 101 17 20 30 42 30 49 0 7 5 13 11 13 7 0 9 -10 5 -25z m-211 -117 c22 -22
25 -29 11 -24 -29 10 -116 68 -116 78 0 16 75 -23 105 -54z"/>
<path d="M1805 6010 c-8 -14 3 -30 21 -30 8 0 14 9 14 20 0 21 -24 28 -35 10z"/>
<path d="M2222 5864 c2 -11 11 -20 22 -22 13 -3 17 1 14 14 -2 11 -11 20 -22
22 -13 3 -17 -1 -14 -14z"/>
<path d="M1930 5391 c0 -15 6 -21 21 -21 25 0 22 33 -4 38 -12 2 -17 -3 -17
-17z"/>
<path d="M6646 5248 c-43 -60 20 -133 79 -94 32 21 32 60 0 91 -30 31 -59 32
-79 3z"/>
<path d="M6327 5112 c-24 -26 -21 -68 5 -86 30 -21 61 -20 81 2 22 25 21 44
-4 76 -24 30 -59 34 -82 8z"/>
<path d="M4082 4807 c-12 -13 -22 -34 -22 -47 0 -13 -18 -46 -39 -74 -129
-169 -206 -414 -181 -583 12 -85 52 -168 107 -225 43 -44 45 -49 35 -75 -7
-15 -23 -68 -36 -118 -13 -49 -45 -162 -70 -249 -25 -88 -46 -168 -46 -178 0
-23 -16 -24 -24 -1 -4 9 -11 80 -16 157 -11 181 -24 239 -62 282 -57 65 -88
33 -96 -101 -7 -122 25 -225 124 -405 l41 -75 -5 -177 c-3 -111 0 -207 7 -258
7 -45 10 -84 7 -87 -2 -3 -20 26 -39 63 -32 64 -59 125 -151 343 -42 99 -71
140 -117 165 -29 15 -41 16 -76 7 -50 -14 -131 -88 -162 -150 -12 -23 -26 -39
-31 -36 -5 3 -10 -28 -12 -72 l-3 -78 -18 40 c-10 22 -36 107 -56 188 -39 153
-58 192 -105 215 -38 19 -72 -4 -86 -58 -22 -83 14 -167 125 -291 67 -75 131
-129 154 -129 6 0 11 19 11 43 0 57 19 81 93 118 34 18 74 40 89 51 32 22 48
17 48 -15 1 -33 62 -188 101 -253 59 -100 251 -277 280 -258 4 2 0 30 -7 61
-24 103 -27 99 103 203 181 146 293 269 293 322 0 27 -36 58 -67 58 -45 0
-124 -44 -175 -95 -25 -26 -75 -99 -111 -161 -35 -62 -67 -111 -71 -107 -20
21 2 379 29 464 4 12 70 50 189 108 190 92 236 125 236 166 0 32 -44 65 -88
65 -76 0 -183 -81 -263 -199 -19 -28 -38 -51 -43 -51 -11 0 0 53 30 148 13 42
36 121 50 175 13 54 32 116 41 139 15 38 17 40 47 32 64 -17 148 -9 210 19
122 56 295 212 415 375 41 55 60 72 78 72 29 0 73 42 73 70 0 27 -35 60 -64
60 -38 0 -56 -25 -56 -78 0 -41 -7 -56 -52 -117 -29 -38 -98 -116 -153 -171
-152 -154 -266 -219 -375 -212 l-52 3 110 87 c126 100 317 280 375 353 21 28
49 52 60 55 30 8 55 55 41 77 -20 32 -42 39 -72 22 -25 -14 -27 -20 -25 -69
l3 -54 -133 -131 c-114 -112 -300 -273 -347 -299 -8 -5 7 13 34 40 57 57 136
160 209 277 93 148 147 214 178 221 40 8 63 46 48 80 -13 28 -37 40 -61 31
-21 -8 -39 -52 -32 -79 4 -16 -7 -38 -43 -83 -26 -34 -85 -119 -130 -190 -82
-128 -167 -234 -205 -254 -46 -25 -40 -11 125 261 39 63 80 131 92 150 12 19
46 77 75 128 40 70 57 92 74 92 27 0 40 9 56 39 15 29 -2 67 -34 77 -30 10
-66 -37 -66 -85 0 -20 -4 -41 -9 -46 -4 -6 -25 -41 -46 -80 -21 -38 -57 -99
-80 -135 -89 -138 -150 -240 -211 -352 -20 -38 -40 -68 -45 -68 -24 0 4 172
48 294 31 87 109 226 158 283 30 35 40 41 58 34 49 -19 88 25 73 84 -14 56
-87 37 -101 -26 -4 -16 -26 -52 -49 -81 -102 -125 -197 -346 -212 -490 -4 -38
-10 -68 -15 -68 -16 0 -31 116 -25 194 11 130 50 223 164 391 71 104 81 115
107 115 49 0 74 78 33 104 -20 12 -58 -16 -58 -45 0 -15 -36 -73 -134 -214
-45 -65 -101 -185 -120 -258 -14 -50 -17 -93 -14 -167 4 -114 -7 -118 -43 -15
-30 86 -23 246 16 360 33 96 95 217 139 269 29 35 33 37 58 25 23 -10 31 -9
52 5 55 36 58 94 6 121 -38 20 -43 19 -68 -8z m68 -21 c16 -20 9 -56 -12 -70
-40 -24 -80 44 -42 71 23 17 39 16 54 -1z m105 -97 c0 -17 -6 -25 -22 -27 -17
-3 -23 2 -23 15 0 22 20 45 35 40 5 -2 10 -15 10 -28z m225 -74 c0 -25 -26
-46 -47 -38 -14 5 -18 45 -6 56 3 4 17 7 30 7 18 0 23 -5 23 -25z m-152 -41
c4 -25 -22 -49 -43 -40 -15 5 -21 47 -8 60 14 14 48 1 51 -20z m195 -86 c14
-21 2 -48 -22 -48 -24 0 -37 36 -20 56 14 17 28 14 42 -8z m106 -82 c18 -22
-4 -58 -32 -54 -27 4 -33 30 -12 52 20 20 29 20 44 2z m155 -38 c20 -28 4 -58
-30 -58 -30 0 -41 23 -26 56 14 30 36 31 56 2z m-1066 -695 c26 -37 42 -97 42
-158 0 -27 7 -107 16 -178 8 -70 13 -133 11 -140 -6 -18 -92 158 -116 239 -33
110 -24 264 14 264 8 0 22 -12 33 -27z m511 -140 c18 -16 19 -21 8 -43 -7 -13
-40 -41 -74 -63 -60 -37 -244 -118 -252 -111 -7 7 66 107 112 153 77 77 159
103 206 64z m-24 -444 c18 -19 18 -21 1 -53 -10 -18 -47 -63 -82 -99 -68 -70
-269 -237 -286 -237 -14 0 -1 36 49 130 84 156 135 217 218 256 61 29 77 30
100 3z m-642 -32 c14 -24 44 -88 65 -143 22 -54 67 -157 101 -228 34 -71 61
-134 61 -140 0 -17 -128 113 -175 179 -54 75 -91 155 -115 248 -16 63 -16 75
-4 100 20 38 38 34 67 -16z"/>
<path d="M4317 4782 c-23 -25 -21 -68 3 -92 27 -27 36 -25 71 9 31 31 35 51
19 82 -14 25 -71 26 -93 1z m68 -36 c0 -36 -26 -56 -49 -37 -31 26 -11 75 29
69 15 -2 20 -11 20 -32z"/>
<path d="M4602 4577 c-26 -27 -28 -54 -6 -85 20 -29 49 -28 79 3 30 29 32 65
7 88 -26 23 -55 21 -80 -6z m68 -12 c19 -23 -3 -67 -32 -63 -34 5 -46 33 -24
57 23 25 39 26 56 6z"/>
<path d="M5265 4446 c-65 -29 -121 -107 -149 -206 -8 -30 -22 -108 -31 -173
-15 -111 -20 -127 -83 -257 -37 -77 -70 -140 -74 -140 -11 0 -17 29 -28 134
-16 152 -41 223 -100 283 -40 41 -84 51 -112 26 -18 -16 -20 -26 -15 -108 3
-54 13 -111 26 -144 29 -77 93 -181 149 -243 l49 -53 -33 -113 c-18 -63 -40
-157 -49 -210 -22 -130 -28 -134 -52 -31 -27 117 -77 187 -145 204 -37 9 -64
-9 -78 -51 -26 -77 20 -175 143 -309 46 -49 89 -100 95 -112 7 -12 12 -48 12
-80 1 -32 9 -130 19 -218 10 -88 17 -162 16 -164 -16 -17 -79 97 -140 254 -58
147 -86 201 -121 239 -76 80 -195 70 -224 -20 -15 -46 -8 -130 16 -181 27 -55
134 -158 254 -243 132 -93 215 -172 246 -232 23 -46 51 -67 40 -30 -10 34 -36
198 -36 229 0 19 10 43 24 60 24 28 47 42 181 103 122 57 255 155 255 190 0 4
-9 18 -19 31 -17 22 -27 24 -98 24 -66 0 -87 -5 -136 -29 -70 -34 -165 -124
-196 -185 -16 -30 -26 -40 -33 -33 -6 6 -11 80 -12 182 l-1 172 75 22 c84 24
140 55 170 93 39 49 17 92 -48 93 -44 0 -78 -19 -132 -74 -25 -25 -49 -46 -54
-46 -9 0 -1 147 10 175 3 8 31 22 62 31 225 66 280 90 326 145 35 41 33 71 -5
103 -65 55 -167 25 -278 -84 -35 -34 -65 -59 -68 -56 -7 6 43 156 78 234 31
69 35 71 114 46 77 -25 264 -24 335 2 70 26 92 59 66 98 -37 58 -108 58 -325
1 -73 -20 -136 -34 -138 -31 -9 8 58 123 105 182 26 32 76 82 112 112 190 158
236 233 201 325 -21 55 -110 89 -166 63z"/>
<path d="M6110 4384 c-32 -105 -28 -159 22 -251 22 -43 47 -89 54 -103 7 -14
16 -56 20 -95 l7 -70 -48 48 c-49 49 -87 73 -137 88 -22 6 -28 4 -28 -8 0 -23
82 -134 154 -206 l63 -65 0 -116 c0 -64 -1 -116 -4 -116 -2 0 -31 29 -65 66
-59 63 -143 123 -155 111 -3 -4 5 -35 18 -69 27 -72 80 -135 147 -174 26 -15
50 -32 54 -38 9 -13 11 -176 2 -176 -3 0 -26 16 -51 35 -49 37 -148 79 -169
71 -23 -9 5 -67 56 -116 32 -31 66 -52 105 -65 32 -11 60 -26 62 -33 3 -6 1
-62 -3 -123 l-9 -111 -32 46 c-34 48 -98 95 -135 99 -32 3 -35 -38 -8 -101 25
-58 67 -102 130 -135 37 -19 45 -29 44 -50 0 -15 -1 -57 -2 -94 l-2 -68 -40
42 c-43 47 -111 93 -135 93 -23 0 -28 -24 -15 -65 15 -46 49 -85 122 -141 45
-36 57 -50 53 -65 -9 -27 18 -25 30 3 7 14 36 31 86 50 128 48 209 138 124
138 -34 0 -141 -34 -160 -51 -5 -5 -16 -9 -23 -9 -12 0 -14 16 -9 96 6 100 12
113 52 114 30 0 126 48 158 78 29 27 57 72 57 92 0 26 -81 9 -167 -35 -48 -25
-88 -45 -90 -45 -5 0 -1 121 6 185 l6 60 60 15 c78 21 112 39 164 90 69 68 42
96 -63 66 -30 -9 -77 -32 -106 -51 -29 -19 -54 -35 -56 -35 -2 0 -4 42 -4 94
l0 94 63 21 c97 33 173 89 214 158 29 50 23 67 -20 57 -42 -9 -172 -80 -214
-117 -19 -16 -36 -28 -38 -25 -2 2 -7 58 -11 125 l-7 121 52 33 c29 17 70 53
90 79 39 49 96 192 87 216 -15 38 -74 -10 -169 -133 -21 -29 -43 -53 -47 -53
-4 0 -10 31 -14 69 -3 39 -10 80 -15 93 -5 13 -5 33 1 48 19 52 22 185 4 239
-20 62 -67 141 -83 141 -7 0 -21 -30 -33 -66z"/>
<path d="M3484 4405 c-46 -49 -73 -130 -85 -254 -10 -101 -36 -211 -49 -211
-4 0 -12 -31 -19 -70 -20 -112 -36 -106 -52 20 -17 141 -64 223 -117 206 -29
-10 -34 -46 -18 -125 17 -82 45 -140 97 -203 29 -35 39 -56 40 -85 1 -38 1
-38 9 -8 5 17 17 59 27 95 l18 65 85 6 c91 6 139 23 189 65 32 26 43 75 20 89
-22 14 -80 -7 -175 -65 -55 -32 -100 -55 -102 -50 -2 6 6 25 17 44 12 18 21
41 21 50 0 30 50 116 119 204 85 107 101 139 101 195 0 52 -13 67 -58 67 -27
0 -42 -8 -68 -35z"/>
<path d="M3257 4239 c-33 -19 -15 -79 24 -79 31 0 40 63 11 79 -11 6 -24 6
-35 0z"/>
<path d="M3267 4094 c-14 -14 -7 -35 11 -32 9 2 17 10 17 17 0 16 -18 25 -28
15z"/>
<path d="M3491 4051 c-8 -15 -7 -20 6 -25 21 -8 38 8 30 28 -8 22 -24 20 -36
-3z"/>
<path d="M3330 4031 c0 -11 4 -22 9 -25 4 -3 6 6 3 19 -5 30 -12 33 -12 6z"/>
<path d="M5738 3891 c-13 -11 -37 -45 -53 -78 -26 -50 -30 -69 -30 -138 0 -44
5 -105 11 -136 8 -43 7 -85 -5 -184 -9 -71 -20 -129 -26 -130 -5 0 -15 29 -22
65 -25 126 -95 223 -140 194 -14 -9 -18 -25 -18 -65 1 -60 18 -99 113 -259
l57 -95 -3 -105 c-2 -99 -10 -166 -17 -158 -2 2 -18 54 -35 116 -36 135 -57
178 -105 220 -42 38 -78 41 -99 10 -42 -60 8 -201 113 -318 17 -19 54 -67 80
-107 43 -62 50 -81 55 -135 13 -155 15 -198 7 -198 -5 0 -42 63 -82 141 -58
114 -80 147 -113 170 -51 37 -96 37 -109 -1 -14 -38 9 -131 45 -184 17 -27 67
-74 117 -111 47 -36 95 -78 106 -95 16 -24 27 -30 55 -30 43 0 55 8 65 40 4
14 47 66 95 115 94 96 127 149 136 218 11 80 -47 99 -123 41 -35 -27 -70 -88
-108 -189 -13 -33 -29 -73 -36 -90 l-12 -30 -8 40 c-4 22 -8 81 -8 131 -1 89
0 94 35 145 19 30 73 90 119 135 88 86 145 171 145 216 0 36 -39 63 -77 53
-63 -15 -100 -51 -141 -137 -22 -46 -49 -103 -61 -128 l-21 -45 6 120 c4 79
11 128 20 143 14 21 86 91 197 192 78 70 100 134 52 146 -62 16 -126 -33 -195
-150 -25 -41 -49 -76 -53 -76 -20 0 37 322 75 425 72 196 86 267 58 300 -17
20 -32 19 -62 -4z m46 -67 c-1 -45 -63 -235 -84 -258 -14 -15 -33 76 -27 131
3 28 13 69 23 90 21 45 64 95 79 90 5 -2 10 -26 9 -53z m-241 -417 c39 -66 81
-237 58 -237 -17 0 -122 197 -128 240 -5 38 -4 40 20 40 19 0 31 -10 50 -43z
m369 -62 c-5 -27 -10 -32 -113 -120 -97 -83 -112 -81 -60 10 41 72 114 137
149 133 21 -2 26 -8 24 -23z m-443 -243 c15 -15 38 -54 50 -86 28 -76 70 -255
61 -261 -9 -6 -103 105 -145 170 -53 84 -80 176 -58 198 16 17 66 6 92 -21z
m444 -43 c18 -28 -23 -90 -134 -204 -59 -60 -110 -107 -113 -104 -9 8 50 175
78 224 38 64 91 107 128 103 17 -2 35 -10 41 -19z m-516 -375 c19 -9 45 -31
59 -49 30 -39 148 -275 141 -282 -11 -10 -196 144 -220 184 -31 51 -50 117
-42 143 8 24 17 25 62 4z m518 -4 c4 -12 -2 -44 -12 -73 -14 -41 -39 -73 -120
-155 -57 -57 -103 -98 -103 -91 0 18 60 189 80 229 43 86 139 141 155 90z"/>
<path d="M3409 3737 c-19 -12 -54 -53 -79 -90 -44 -66 -45 -67 -51 -40 -7 27
-7 27 -8 3 0 -14 -8 -36 -17 -48 -10 -15 -13 -32 -9 -53 6 -27 9 -29 23 -16
10 8 46 29 82 48 78 41 133 94 150 143 10 32 10 40 -6 57 -22 25 -43 24 -85
-4z"/>
<path d="M3202 3696 c1 -10 8 -17 13 -17 15 1 12 24 -3 29 -9 3 -13 -2 -10
-12z"/>
<path d="M3122 3688 c-26 -26 -7 -54 28 -43 24 8 27 40 4 49 -20 8 -18 8 -32
-6z"/>
<path d="M3220 3606 c0 -8 5 -18 10 -21 6 -3 10 1 10 9 0 8 -4 18 -10 21 -5 3
-10 -1 -10 -9z"/>
<path d="M3089 3553 c-19 -22 -15 -102 6 -144 10 -19 32 -54 49 -79 17 -25 43
-67 58 -95 l28 -50 0 43 c0 32 4 44 18 48 119 38 193 131 131 165 -19 10 -27
4 -75 -45 -30 -31 -57 -56 -59 -56 -3 0 -5 12 -6 28 0 15 -3 21 -6 15 -10 -26
-21 -11 -27 38 -15 108 -78 180 -117 132z"/>
<path d="M7617 3542 c-22 -24 -21 -47 2 -97 24 -52 67 -93 82 -78 9 9 3 22
-20 50 -19 23 -27 39 -20 42 7 2 25 -11 40 -30 23 -28 29 -31 43 -20 29 24 29
50 0 89 -16 20 -35 42 -44 49 -22 18 -65 16 -83 -5z"/>
<path d="M2659 3522 c-54 -20 -130 -65 -149 -87 -25 -30 -1 -26 48 9 76 55
139 79 207 80 48 1 66 -4 88 -21 18 -14 23 -23 15 -26 -10 -4 -10 -6 0 -6 6
-1 12 -7 12 -15 0 -8 6 -16 13 -19 9 -3 8 -11 -3 -33 -18 -34 -119 -88 -197
-107 -29 -6 -53 -15 -53 -19 0 -12 11 -10 86 13 181 56 242 123 179 197 -43
51 -156 66 -246 34z"/>
<path d="M3242 3440 c0 -14 2 -19 5 -12 2 6 2 18 0 25 -3 6 -5 1 -5 -13z"/>
<path d="M2718 3443 c7 -3 16 -2 19 1 4 3 -2 6 -13 5 -11 0 -14 -3 -6 -6z"/>
<path d="M2575 3390 c-3 -5 -2 -10 4 -10 5 0 13 5 16 10 3 6 2 10 -4 10 -5 0
-13 -4 -16 -10z"/>
<path d="M2775 3390 c-3 -6 1 -7 9 -4 18 7 21 14 7 14 -6 0 -13 -4 -16 -10z"/>
<path d="M2725 3365 c-25 -12 -26 -14 -5 -9 14 4 29 10 35 15 12 12 5 11 -30
-6z"/>
<path d="M2670 3340 c-9 -6 -10 -10 -3 -10 6 0 15 5 18 10 8 12 4 12 -15 0z"/>
<path d="M3407 3326 c-7 -18 1 -26 25 -26 11 0 18 7 18 20 0 23 -35 28 -43 6z"/>
<path d="M3454 3279 c-9 -15 12 -33 30 -26 9 4 16 13 16 22 0 17 -35 21 -46 4z"/>
<path d="M3124 3226 c-7 -19 3 -36 22 -36 10 0 14 8 12 22 -4 26 -26 36 -34
14z"/>
<path d="M3320 3220 c0 -5 11 -9 24 -8 14 1 22 6 20 10 -7 12 -44 10 -44 -2z"/>
<path d="M3417 3223 c-12 -11 -8 -23 8 -23 8 0 15 7 15 15 0 16 -12 20 -23 8z"/>
<path d="M3211 3106 c-6 -15 -6 -37 0 -60 12 -42 23 -49 14 -8 -3 16 -1 40 4
55 7 17 7 28 1 32 -6 4 -14 -5 -19 -19z"/>
<path d="M6601 3004 c-12 -15 -21 -37 -21 -50 0 -52 44 -154 94 -219 70 -92
75 -95 132 -65 25 14 48 30 51 36 7 17 -26 132 -52 183 -12 25 -40 63 -60 84
-61 63 -111 73 -144 31z"/>
<path d="M7185 2966 c-47 -23 -205 -169 -194 -180 6 -6 208 129 259 173 34 30
34 30 10 31 -14 0 -47 -11 -75 -24z"/>
<path d="M4150 2562 c-58 -26 -131 -117 -115 -142 4 -6 21 12 38 42 50 84 118
106 154 51 14 -21 15 -33 5 -86 -6 -33 -10 -63 -8 -65 10 -9 29 46 33 98 5 53
3 61 -20 84 -25 25 -56 32 -87 18z"/>
</g>
</svg>
